<svg width="233" height="55" viewBox="0 0 233 55" fill="none" xmlns="http://www.w3.org/2000/svg">
<circle cx="27.5" cy="27.5" r="27.5" fill="#302E3A"/>
<path d="M20.914 35V19.6H24.456V29.632L31.804 19.6H35.148V35H31.628V24.99L24.28 35H20.914Z" fill="white"/>
<path d="M88.376 20H85.34V10.606L78.74 20H76.43V4.6H79.466V14.016L86.066 4.6H88.376V20ZM91.1007 9H98.6247V11.728H93.9387V20H91.1007V9ZM109.088 18.636C107.973 19.7507 106.595 20.308 104.952 20.308C103.309 20.308 101.931 19.7507 100.816 18.636C99.7013 17.5213 99.144 16.1427 99.144 14.5C99.144 12.872 99.7013 11.5007 100.816 10.386C101.945 9.25667 103.324 8.692 104.952 8.692C106.58 8.692 107.959 9.25667 109.088 10.386C110.217 11.5153 110.782 12.8867 110.782 14.5C110.782 16.128 110.217 17.5067 109.088 18.636ZM102.818 16.678C103.39 17.25 104.101 17.536 104.952 17.536C105.803 17.536 106.514 17.25 107.086 16.678C107.658 16.106 107.944 15.38 107.944 14.5C107.944 13.62 107.658 12.894 107.086 12.322C106.514 11.75 105.803 11.464 104.952 11.464C104.101 11.464 103.39 11.75 102.818 12.322C102.261 12.9087 101.982 13.6347 101.982 14.5C101.982 15.3653 102.261 16.0913 102.818 16.678ZM119.18 8.692C120.662 8.692 121.923 9.25667 122.964 10.386C124.02 11.5153 124.548 12.8867 124.548 14.5C124.548 16.1427 124.02 17.5213 122.964 18.636C121.938 19.7507 120.676 20.308 119.18 20.308C117.64 20.308 116.452 19.7727 115.616 18.702V24.4H112.778V9H115.616V10.298C116.452 9.22733 117.64 8.692 119.18 8.692ZM116.474 16.744C117.046 17.316 117.772 17.602 118.652 17.602C119.532 17.602 120.258 17.316 120.83 16.744C121.417 16.1573 121.71 15.4093 121.71 14.5C121.71 13.5907 121.417 12.85 120.83 12.278C120.258 11.6913 119.532 11.398 118.652 11.398C117.772 11.398 117.046 11.6913 116.474 12.278C115.902 12.85 115.616 13.5907 115.616 14.5C115.616 15.4093 115.902 16.1573 116.474 16.744ZM129.388 12.52H131.522C132.769 12.52 133.773 12.8647 134.536 13.554C135.299 14.2287 135.68 15.1307 135.68 16.26C135.68 17.3893 135.299 18.2987 134.536 18.988C133.773 19.6627 132.769 20 131.522 20H126.55V9H129.388V12.52ZM129.388 17.492H131.544C131.94 17.492 132.263 17.382 132.512 17.162C132.776 16.9273 132.908 16.6267 132.908 16.26C132.908 15.8933 132.776 15.5927 132.512 15.358C132.263 15.1233 131.94 15.006 131.544 15.006H129.388V17.492ZM149.212 12.08L155.13 20H151.632L146.132 12.784V20H143.096V4.6H146.132V11.398L151.412 4.6H154.91L149.212 12.08ZM160.542 16.392L162.984 9H166.02L162.016 20C160.901 23.0947 158.965 24.5613 156.208 24.4V21.76C156.956 21.7747 157.542 21.6353 157.968 21.342C158.408 21.0487 158.76 20.5573 159.024 19.868L154.58 9H157.594L160.542 16.392ZM167.409 9H176.121V20H173.283V11.728H170.247V15.402C170.247 18.79 168.699 20.3227 165.605 20V17.338C166.191 17.4847 166.639 17.382 166.947 17.03C167.255 16.678 167.409 16.084 167.409 15.248V9ZM189.385 15.666H181.091C181.457 17.0447 182.491 17.734 184.193 17.734C185.278 17.734 186.099 17.3673 186.657 16.634L188.945 17.954C187.859 19.5233 186.261 20.308 184.149 20.308C182.33 20.308 180.871 19.758 179.771 18.658C178.671 17.558 178.121 16.172 178.121 14.5C178.121 12.8573 178.663 11.4787 179.749 10.364C180.819 9.24933 182.213 8.692 183.929 8.692C185.557 8.692 186.884 9.24933 187.911 10.364C188.967 11.4787 189.495 12.8573 189.495 14.5C189.495 14.808 189.458 15.1967 189.385 15.666ZM181.047 13.466H186.657C186.495 12.7473 186.165 12.1973 185.667 11.816C185.183 11.4347 184.603 11.244 183.929 11.244C183.166 11.244 182.535 11.442 182.037 11.838C181.538 12.2193 181.208 12.762 181.047 13.466ZM204.368 17.338V9H207.206V20H191.476V9H194.314V17.338H197.922V9H200.76V17.338H204.368ZM219.174 18.636C218.059 19.7507 216.681 20.308 215.038 20.308C213.395 20.308 212.017 19.7507 210.902 18.636C209.787 17.5213 209.23 16.1427 209.23 14.5C209.23 12.872 209.787 11.5007 210.902 10.386C212.031 9.25667 213.41 8.692 215.038 8.692C216.666 8.692 218.045 9.25667 219.174 10.386C220.303 11.5153 220.868 12.8867 220.868 14.5C220.868 16.128 220.303 17.5067 219.174 18.636ZM212.904 16.678C213.476 17.25 214.187 17.536 215.038 17.536C215.889 17.536 216.6 17.25 217.172 16.678C217.744 16.106 218.03 15.38 218.03 14.5C218.03 13.62 217.744 12.894 217.172 12.322C216.6 11.75 215.889 11.464 215.038 11.464C214.187 11.464 213.476 11.75 212.904 12.322C212.347 12.9087 212.068 13.6347 212.068 14.5C212.068 15.3653 212.347 16.0913 212.904 16.678ZM230.784 14.368C231.811 14.8667 232.324 15.7027 232.324 16.876C232.324 17.8147 232.002 18.57 231.356 19.142C230.711 19.714 229.809 20 228.65 20H222.864V9H228.21C229.354 9 230.249 9.286 230.894 9.858C231.54 10.4153 231.862 11.1633 231.862 12.102C231.862 13.07 231.503 13.8253 230.784 14.368ZM227.946 11.332H225.526V13.312H227.946C228.753 13.312 229.156 12.982 229.156 12.322C229.156 11.662 228.753 11.332 227.946 11.332ZM225.526 17.602H228.32C229.142 17.602 229.552 17.25 229.552 16.546C229.552 16.238 229.442 15.996 229.222 15.82C229.002 15.644 228.702 15.556 228.32 15.556H225.526V17.602Z" fill="black"/>
<path d="M86 33L88.4697 40.6008H96.4616L89.996 45.2984L92.4656 52.8992L86 48.2016L79.5344 52.8992L82.004 45.2984L75.5384 40.6008H83.5303L86 33Z" fill="#FEBB10"/>
<path d="M112 33L114.47 40.6008H122.462L115.996 45.2984L118.466 52.8992L112 48.2016L105.534 52.8992L108.004 45.2984L101.538 40.6008H109.53L112 33Z" fill="#FEBB10"/>
<path d="M138.44 33L141.008 40.6008H149.32L142.596 45.2984L145.164 52.8992L138.44 48.2016L131.716 52.8992L134.284 45.2984L127.56 40.6008H135.872L138.44 33Z" fill="#FEBB10"/>
<path d="M164.881 33L167.351 40.6008H175.342L168.877 45.2984L171.346 52.8992L164.881 48.2016L158.415 52.8992L160.885 45.2984L154.419 40.6008H162.411L164.881 33Z" fill="#FEBB10"/>
<path d="M190.881 33L193.351 40.6008H201.342L194.877 45.2984L197.346 52.8992L190.881 48.2016L184.415 52.8992L186.885 45.2984L180.419 40.6008H188.411L190.881 33Z" fill="#FEBB10"/>
</svg>
