<svg width="279" height="55" viewBox="0 0 279 55" fill="none" xmlns="http://www.w3.org/2000/svg">
<circle cx="27.5" cy="27.5" r="27.5" fill="#302E3A"/>
<path d="M20.914 35V19.6H28.086C29.8753 19.6 31.2687 19.9447 32.266 20.634C33.2633 21.3233 33.762 22.306 33.762 23.582C33.762 24.8433 33.2927 25.826 32.354 26.53C31.4153 27.2193 30.1687 27.564 28.614 27.564L29.032 26.64C30.7627 26.64 32.1047 26.9847 33.058 27.674C34.0113 28.3633 34.488 29.3607 34.488 30.666C34.488 32.0153 33.9747 33.0787 32.948 33.856C31.936 34.6187 30.4547 35 28.504 35H20.914ZM24.456 32.36H28.372C29.1933 32.36 29.8167 32.1987 30.242 31.876C30.6673 31.5533 30.88 31.0547 30.88 30.38C30.88 29.7347 30.6673 29.258 30.242 28.95C29.8167 28.6273 29.1933 28.466 28.372 28.466H24.456V32.36ZM24.456 25.98H27.778C28.5553 25.98 29.142 25.826 29.538 25.518C29.934 25.1953 30.132 24.726 30.132 24.11C30.132 23.494 29.934 23.032 29.538 22.724C29.142 22.4013 28.5553 22.24 27.778 22.24H24.456V25.98Z" fill="white"/>
<path d="M85.736 12.014C87.0853 12.7913 87.76 13.9647 87.76 15.534C87.76 16.8393 87.298 17.91 86.374 18.746C85.45 19.582 84.3133 20 82.964 20H76.43V4.6H82.502C83.8073 4.6 84.9147 5.01067 85.824 5.832C86.7333 6.65333 87.188 7.68733 87.188 8.934C87.188 10.21 86.704 11.2367 85.736 12.014ZM82.502 7.438H79.466V10.826H82.502C82.9713 10.826 83.36 10.6647 83.668 10.342C83.9907 10.0193 84.152 9.616 84.152 9.132C84.152 8.648 83.998 8.24467 83.69 7.922C83.382 7.59933 82.986 7.438 82.502 7.438ZM79.466 17.162H82.964C83.4773 17.162 83.9027 16.9933 84.24 16.656C84.5773 16.304 84.746 15.864 84.746 15.336C84.746 14.8227 84.5773 14.3973 84.24 14.06C83.9027 13.708 83.4773 13.532 82.964 13.532H79.466V17.162ZM90.065 9H98.777V20H95.939V11.728H92.903V15.402C92.903 18.79 91.3557 20.3227 88.261 20V17.338C88.8477 17.4847 89.295 17.382 89.603 17.03C89.911 16.678 90.065 16.084 90.065 15.248V9ZM109.709 10.298V9H112.547V20H109.709V18.702C108.858 19.7727 107.663 20.308 106.123 20.308C104.656 20.308 103.395 19.7507 102.339 18.636C101.297 17.5067 100.777 16.128 100.777 14.5C100.777 12.8867 101.297 11.5153 102.339 10.386C103.395 9.25667 104.656 8.692 106.123 8.692C107.663 8.692 108.858 9.22733 109.709 10.298ZM104.473 16.744C105.045 17.316 105.771 17.602 106.651 17.602C107.531 17.602 108.257 17.316 108.829 16.744C109.415 16.1573 109.709 15.4093 109.709 14.5C109.709 13.5907 109.415 12.85 108.829 12.278C108.257 11.6913 107.531 11.398 106.651 11.398C105.771 11.398 105.045 11.6913 104.473 12.278C103.901 12.85 103.615 13.5907 103.615 14.5C103.615 15.4093 103.901 16.1573 104.473 16.744ZM125.02 9V17.338H126.472V22.948H123.7V20H116.88V22.948H114.108V17.338H115.45C116.081 16.3993 116.396 15.1013 116.396 13.444V9H125.02ZM118.486 17.338H122.248V11.552H119.168V13.444C119.168 15.028 118.941 16.326 118.486 17.338ZM131.041 15.248L136.211 9H138.323V20H135.551V13.752L130.381 20H128.269V9H131.041V15.248ZM149.569 9H152.363V20H149.613V13.576L146.819 17.976H146.467L143.651 13.532V20H140.923V9H143.717L146.643 13.62L149.569 9ZM157.724 15.248L162.894 9H165.006V20H162.234V13.752L157.064 20H154.952V9H157.724V15.248ZM174.009 8.692C175.49 8.692 176.751 9.25667 177.793 10.386C178.849 11.5153 179.377 12.8867 179.377 14.5C179.377 16.1427 178.849 17.5213 177.793 18.636C176.766 19.7507 175.505 20.308 174.009 20.308C172.469 20.308 171.281 19.7727 170.445 18.702V24.4H167.607V9H170.445V10.298C171.281 9.22733 172.469 8.692 174.009 8.692ZM171.303 16.744C171.875 17.316 172.601 17.602 173.481 17.602C174.361 17.602 175.087 17.316 175.659 16.744C176.245 16.1573 176.539 15.4093 176.539 14.5C176.539 13.5907 176.245 12.85 175.659 12.278C175.087 11.6913 174.361 11.398 173.481 11.398C172.601 11.398 171.875 11.6913 171.303 12.278C170.731 12.85 170.445 13.5907 170.445 14.5C170.445 15.4093 170.731 16.1573 171.303 16.744ZM187.01 4.6H195.766V7.504H190.046V20H187.01V4.6ZM197.9 15.248L203.07 9H205.182V20H202.41V13.752L197.24 20H195.128V9H197.9V15.248ZM206.704 9H216.45V11.728H213.018V20H210.18V11.728H206.704V9ZM224.692 13.84V9H227.53V20H224.692V16.502C223.871 16.766 222.998 16.898 222.074 16.898C220.725 16.898 219.654 16.5533 218.862 15.864C218.07 15.1747 217.674 14.1993 217.674 12.938V9H220.512V12.608C220.512 13.708 221.194 14.258 222.558 14.258C223.365 14.258 224.076 14.1187 224.692 13.84ZM240.797 15.666H232.503C232.869 17.0447 233.903 17.734 235.605 17.734C236.69 17.734 237.511 17.3673 238.069 16.634L240.357 17.954C239.271 19.5233 237.673 20.308 235.561 20.308C233.742 20.308 232.283 19.758 231.183 18.658C230.083 17.558 229.533 16.172 229.533 14.5C229.533 12.8573 230.075 11.4787 231.161 10.364C232.231 9.24933 233.625 8.692 235.341 8.692C236.969 8.692 238.296 9.24933 239.323 10.364C240.379 11.4787 240.907 12.8573 240.907 14.5C240.907 14.808 240.87 15.1967 240.797 15.666ZM232.459 13.466H238.069C237.907 12.7473 237.577 12.1973 237.079 11.816C236.595 11.4347 236.015 11.244 235.341 11.244C234.578 11.244 233.947 11.442 233.449 11.838C232.95 12.2193 232.62 12.762 232.459 13.466ZM250.104 13.158V9H252.942V20H250.104V15.82H245.726V20H242.888V9H245.726V13.158H250.104ZM261.13 14.434L265.684 20H262.384L258.38 15.006V20H255.542V9H258.38V13.84L262.164 9H265.552L261.13 14.434ZM275.678 18.636C274.563 19.7507 273.184 20.308 271.542 20.308C269.899 20.308 268.52 19.7507 267.406 18.636C266.291 17.5213 265.734 16.1427 265.734 14.5C265.734 12.872 266.291 11.5007 267.406 10.386C268.535 9.25667 269.914 8.692 271.542 8.692C273.17 8.692 274.548 9.25667 275.678 10.386C276.807 11.5153 277.372 12.8867 277.372 14.5C277.372 16.128 276.807 17.5067 275.678 18.636ZM269.408 16.678C269.98 17.25 270.691 17.536 271.542 17.536C272.392 17.536 273.104 17.25 273.676 16.678C274.248 16.106 274.534 15.38 274.534 14.5C274.534 13.62 274.248 12.894 273.676 12.322C273.104 11.75 272.392 11.464 271.542 11.464C270.691 11.464 269.98 11.75 269.408 12.322C268.85 12.9087 268.572 13.6347 268.572 14.5C268.572 15.3653 268.85 16.0913 269.408 16.678Z" fill="black"/>
<path d="M86 33L88.4697 40.6008H96.4616L89.996 45.2984L92.4656 52.8992L86 48.2016L79.5344 52.8992L82.004 45.2984L75.5384 40.6008H83.5303L86 33Z" fill="#FEBB10"/>
<path d="M112 33L114.47 40.6008H122.462L115.996 45.2984L118.466 52.8992L112 48.2016L105.534 52.8992L108.004 45.2984L101.538 40.6008H109.53L112 33Z" fill="#FEBB10"/>
<path d="M138.44 33L141.008 40.6008H149.32L142.596 45.2984L145.164 52.8992L138.44 48.2016L131.716 52.8992L134.284 45.2984L127.56 40.6008H135.872L138.44 33Z" fill="#FEBB10"/>
<path d="M164.881 33L167.351 40.6008H175.342L168.877 45.2984L171.346 52.8992L164.881 48.2016L158.415 52.8992L160.885 45.2984L154.419 40.6008H162.411L164.881 33Z" fill="#FEBB10"/>
<path d="M190.881 33L193.351 40.6008H201.342L194.877 45.2984L197.346 52.8992L190.881 48.2016L184.415 52.8992L186.885 45.2984L180.419 40.6008H188.411L190.881 33Z" fill="#FEBB10"/>
</svg>
