<svg width="202" height="55" viewBox="0 0 202 55" fill="none" xmlns="http://www.w3.org/2000/svg">
<circle cx="27.5" cy="27.5" r="27.5" fill="#302E3A"/>
<path d="M19.176 35L26.04 19.6H29.56L36.446 35H32.706L27.074 21.404H28.482L22.828 35H19.176ZM22.608 31.7L23.554 28.994H31.474L32.442 31.7H22.608Z" fill="white"/>
<path d="M89.63 20H86.33L85.406 17.228H79.268L78.344 20H75.066L80.456 4.6H84.218L89.63 20ZM82.348 8.098L80.236 14.39H84.46L82.348 8.098ZM98.2093 13.158V9H101.047V20H98.2093V15.82H93.8313V20H90.9933V9H93.8313V13.158H98.2093ZM102.57 9H112.316V11.728H108.884V20H106.046V11.728H102.57V9ZM122.774 18.636C121.659 19.7507 120.28 20.308 118.638 20.308C116.995 20.308 115.616 19.7507 114.502 18.636C113.387 17.5213 112.83 16.1427 112.83 14.5C112.83 12.872 113.387 11.5007 114.502 10.386C115.631 9.25667 117.01 8.692 118.638 8.692C120.266 8.692 121.644 9.25667 122.774 10.386C123.903 11.5153 124.468 12.8867 124.468 14.5C124.468 16.128 123.903 17.5067 122.774 18.636ZM116.504 16.678C117.076 17.25 117.787 17.536 118.638 17.536C119.488 17.536 120.2 17.25 120.772 16.678C121.344 16.106 121.63 15.38 121.63 14.5C121.63 13.62 121.344 12.894 120.772 12.322C120.2 11.75 119.488 11.464 118.638 11.464C117.787 11.464 117.076 11.75 116.504 12.322C115.946 12.9087 115.668 13.6347 115.668 14.5C115.668 15.3653 115.946 16.0913 116.504 16.678ZM133.68 13.158V9H136.518V20H133.68V15.82H129.302V20H126.464V9H129.302V13.158H133.68Z" fill="black"/>
<path d="M86 33L88.4697 40.6008H96.4616L89.996 45.2984L92.4656 52.8992L86 48.2016L79.5344 52.8992L82.004 45.2984L75.5384 40.6008H83.5303L86 33Z" fill="#FEBB10"/>
<path d="M112 33L114.47 40.6008H122.462L115.996 45.2984L118.466 52.8992L112 48.2016L105.534 52.8992L108.004 45.2984L101.538 40.6008H109.53L112 33Z" fill="#FEBB10"/>
<path d="M138.44 33L141.008 40.6008H149.32L142.596 45.2984L145.164 52.8992L138.44 48.2016L131.716 52.8992L134.284 45.2984L127.56 40.6008H135.872L138.44 33Z" fill="#FEBB10"/>
<path d="M164.881 33L167.351 40.6008H175.342L168.877 45.2984L171.346 52.8992L164.881 48.2016L158.415 52.8992L160.885 45.2984L154.419 40.6008H162.411L164.881 33Z" fill="#FEBB10"/>
<path d="M190.881 33L193.351 40.6008H201.342L194.877 45.2984L197.346 52.8992L190.881 48.2016L184.415 52.8992L186.885 45.2984L180.419 40.6008H188.411L190.881 33Z" fill="#FEBB10"/>
</svg>
