<svg width="202" height="55" viewBox="0 0 202 55" fill="none" xmlns="http://www.w3.org/2000/svg">
<circle cx="27.5" cy="27.5" r="27.5" fill="#302E3A"/>
<path d="M20.584 35V23.164H23.862V26.442L23.246 25.452C23.6713 24.66 24.28 24.0513 25.072 23.626C25.864 23.2007 26.766 22.988 27.778 22.988C28.7167 22.988 29.5527 23.1787 30.286 23.56C31.034 23.9267 31.6207 24.4987 32.046 25.276C32.4713 26.0387 32.684 27.0213 32.684 28.224V35H29.252V28.752C29.252 27.7987 29.0393 27.0947 28.614 26.64C28.2033 26.1853 27.6167 25.958 26.854 25.958C26.3113 25.958 25.82 26.0753 25.38 26.31C24.9547 26.53 24.6173 26.8747 24.368 27.344C24.1333 27.8133 24.016 28.4147 24.016 29.148V35H20.584Z" fill="white"/>
<path d="M82.414 8.692C83.6313 8.692 84.6213 9.09533 85.384 9.902C86.176 10.7233 86.572 11.838 86.572 13.246V20H83.734V13.598C83.734 12.8793 83.536 12.322 83.14 11.926C82.7587 11.53 82.2307 11.332 81.556 11.332C80.808 11.332 80.214 11.5667 79.774 12.036C79.3487 12.4907 79.136 13.1653 79.136 14.06V20H76.298V9H79.136V10.232C79.8107 9.20533 80.9033 8.692 82.414 8.692ZM97.3553 10.298V9H100.193V20H97.3553V18.702C96.5046 19.7727 95.3093 20.308 93.7693 20.308C92.3026 20.308 91.0413 19.7507 89.9853 18.636C88.9439 17.5067 88.4233 16.128 88.4233 14.5C88.4233 12.8867 88.9439 11.5153 89.9853 10.386C91.0413 9.25667 92.3026 8.692 93.7693 8.692C95.3093 8.692 96.5046 9.22733 97.3553 10.298ZM92.1193 16.744C92.6913 17.316 93.4173 17.602 94.2973 17.602C95.1773 17.602 95.9033 17.316 96.4753 16.744C97.0619 16.1573 97.3553 15.4093 97.3553 14.5C97.3553 13.5907 97.0619 12.85 96.4753 12.278C95.9033 11.6913 95.1773 11.398 94.2973 11.398C93.4173 11.398 92.6913 11.6913 92.1193 12.278C91.5473 12.85 91.2613 13.5907 91.2613 14.5C91.2613 15.4093 91.5473 16.1573 92.1193 16.744ZM109.059 9V11.728H106.573V16.304C106.573 16.6853 106.668 16.964 106.859 17.14C107.049 17.316 107.328 17.4187 107.695 17.448C108.061 17.4627 108.516 17.4553 109.059 17.426V20C107.137 20.22 105.766 20.044 104.945 19.472C104.138 18.8853 103.735 17.8293 103.735 16.304V11.728H101.821V9H103.735V6.778L106.573 5.92V9H109.059ZM118.492 14.94V9H121.33V20H118.492V18.768C117.817 19.7947 116.724 20.308 115.214 20.308C114.011 20.308 113.014 19.9047 112.222 19.098C111.444 18.2767 111.056 17.162 111.056 15.754V9H113.894V15.402C113.894 16.1207 114.084 16.678 114.466 17.074C114.862 17.47 115.397 17.668 116.072 17.668C116.82 17.668 117.406 17.4407 117.832 16.986C118.272 16.5167 118.492 15.8347 118.492 14.94ZM126.461 12.124C126.461 12.5933 127.128 12.9967 128.463 13.334C128.932 13.4367 129.358 13.5613 129.739 13.708C130.12 13.84 130.502 14.038 130.883 14.302C131.279 14.5513 131.587 14.8887 131.807 15.314C132.027 15.7393 132.137 16.2307 132.137 16.788C132.137 17.9173 131.712 18.79 130.861 19.406C130.01 20.0073 128.962 20.308 127.715 20.308C125.456 20.308 123.916 19.4353 123.095 17.69L125.559 16.304C125.896 17.2573 126.615 17.734 127.715 17.734C128.727 17.734 129.233 17.4187 129.233 16.788C129.233 16.3187 128.566 15.9153 127.231 15.578C126.732 15.446 126.307 15.314 125.955 15.182C125.603 15.05 125.222 14.8593 124.811 14.61C124.4 14.346 124.085 14.016 123.865 13.62C123.66 13.2093 123.557 12.7327 123.557 12.19C123.557 11.1047 123.953 10.254 124.745 9.638C125.552 9.00733 126.549 8.692 127.737 8.692C128.632 8.692 129.446 8.89733 130.179 9.308C130.912 9.704 131.492 10.276 131.917 11.024L129.497 12.344C129.145 11.596 128.558 11.222 127.737 11.222C127.37 11.222 127.062 11.31 126.813 11.486C126.578 11.6473 126.461 11.86 126.461 12.124ZM135.37 7.68C134.901 7.68 134.49 7.51133 134.138 7.174C133.801 6.822 133.632 6.41133 133.632 5.942C133.632 5.47267 133.801 5.062 134.138 4.71C134.49 4.358 134.901 4.182 135.37 4.182C135.854 4.182 136.265 4.358 136.602 4.71C136.954 5.062 137.13 5.47267 137.13 5.942C137.13 6.41133 136.954 6.822 136.602 7.174C136.265 7.51133 135.854 7.68 135.37 7.68ZM136.8 20H133.962V9H136.8V20ZM144.986 14.434L149.54 20H146.24L142.236 15.006V20H139.398V4.6H142.236V13.84L146.02 9H149.408L144.986 14.434ZM156.544 14.434L161.098 20H157.798L153.794 15.006V20H150.956V4.6H153.794V13.84L157.578 9H160.966L156.544 14.434ZM161.073 7.504V4.6H171.017V7.174L165.803 20H162.591L167.651 7.504H161.073ZM180.349 11.992C181.772 12.8427 182.483 14.082 182.483 15.71C182.483 17.1327 181.984 18.2547 180.987 19.076C180.004 19.8973 178.662 20.308 176.961 20.308C175.245 20.308 173.896 19.8973 172.913 19.076C171.93 18.2547 171.439 17.1327 171.439 15.71C171.439 14.0967 172.143 12.8573 173.551 11.992C172.48 11.2293 171.945 10.166 171.945 8.802C171.945 7.37933 172.422 6.272 173.375 5.48C174.343 4.688 175.538 4.292 176.961 4.292C178.398 4.292 179.586 4.688 180.525 5.48C181.478 6.272 181.955 7.37933 181.955 8.802C181.955 10.166 181.42 11.2293 180.349 11.992ZM178.941 8.956C178.941 8.39867 178.758 7.95867 178.391 7.636C178.024 7.31333 177.548 7.152 176.961 7.152C176.374 7.152 175.898 7.31333 175.531 7.636C175.164 7.95867 174.981 8.39867 174.981 8.956C174.981 9.528 175.164 9.97533 175.531 10.298C175.898 10.6207 176.374 10.782 176.961 10.782C177.548 10.782 178.024 10.6207 178.391 10.298C178.758 9.97533 178.941 9.528 178.941 8.956ZM178.787 16.876C179.242 16.4947 179.469 15.974 179.469 15.314C179.469 14.654 179.242 14.1407 178.787 13.774C178.332 13.3927 177.724 13.202 176.961 13.202C176.198 13.202 175.59 13.3927 175.135 13.774C174.68 14.1407 174.453 14.654 174.453 15.314C174.453 15.974 174.68 16.4947 175.135 16.876C175.59 17.2573 176.198 17.448 176.961 17.448C177.724 17.448 178.332 17.2573 178.787 16.876Z" fill="black"/>
<path d="M86 33L88.4697 40.6008H96.4616L89.996 45.2984L92.4656 52.8992L86 48.2016L79.5344 52.8992L82.004 45.2984L75.5384 40.6008H83.5303L86 33Z" fill="#FEBB10"/>
<path d="M112 33L114.47 40.6008H122.462L115.996 45.2984L118.466 52.8992L112 48.2016L105.534 52.8992L108.004 45.2984L101.538 40.6008H109.53L112 33Z" fill="#FEBB10"/>
<path d="M138.44 33L141.008 40.6008H149.32L142.596 45.2984L145.164 52.8992L138.44 48.2016L131.716 52.8992L134.284 45.2984L127.56 40.6008H135.872L138.44 33Z" fill="#FEBB10"/>
<path d="M164.881 33L167.351 40.6008H175.342L168.877 45.2984L171.346 52.8992L164.881 48.2016L158.415 52.8992L160.885 45.2984L154.419 40.6008H162.411L164.881 33Z" fill="#FEBB10"/>
<path d="M190.881 33L193.351 40.6008H201.342L194.877 45.2984L197.346 52.8992L190.881 48.2016L184.415 52.8992L186.885 45.2984L180.419 40.6008H188.411L190.881 33Z" fill="#FEBB10"/>
</svg>
