<svg width="282" height="55" viewBox="0 0 282 55" fill="none" xmlns="http://www.w3.org/2000/svg">
<circle cx="27.5" cy="27.5" r="27.5" fill="#302E3A"/>
<path d="M20.914 35V19.6H28.086C29.8753 19.6 31.2687 19.9447 32.266 20.634C33.2633 21.3233 33.762 22.306 33.762 23.582C33.762 24.8433 33.2927 25.826 32.354 26.53C31.4153 27.2193 30.1687 27.564 28.614 27.564L29.032 26.64C30.7627 26.64 32.1047 26.9847 33.058 27.674C34.0113 28.3633 34.488 29.3607 34.488 30.666C34.488 32.0153 33.9747 33.0787 32.948 33.856C31.936 34.6187 30.4547 35 28.504 35H20.914ZM24.456 32.36H28.372C29.1933 32.36 29.8167 32.1987 30.242 31.876C30.6673 31.5533 30.88 31.0547 30.88 30.38C30.88 29.7347 30.6673 29.258 30.242 28.95C29.8167 28.6273 29.1933 28.466 28.372 28.466H24.456V32.36ZM24.456 25.98H27.778C28.5553 25.98 29.142 25.826 29.538 25.518C29.934 25.1953 30.132 24.726 30.132 24.11C30.132 23.494 29.934 23.032 29.538 22.724C29.142 22.4013 28.5553 22.24 27.778 22.24H24.456V25.98Z" fill="white"/>
<path d="M79.136 20H76.298V3.94H79.136V20ZM92.4255 15.666H84.1315C84.4982 17.0447 85.5322 17.734 87.2335 17.734C88.3189 17.734 89.1402 17.3673 89.6975 16.634L91.9855 17.954C90.9002 19.5233 89.3015 20.308 87.1895 20.308C85.3709 20.308 83.9115 19.758 82.8115 18.658C81.7115 17.558 81.1615 16.172 81.1615 14.5C81.1615 12.8573 81.7042 11.4787 82.7895 10.364C83.8602 9.24933 85.2535 8.692 86.9695 8.692C88.5975 8.692 89.9249 9.24933 90.9515 10.364C92.0075 11.4787 92.5355 12.8573 92.5355 14.5C92.5355 14.808 92.4989 15.1967 92.4255 15.666ZM84.0875 13.466H89.6975C89.5362 12.7473 89.2062 12.1973 88.7075 11.816C88.2235 11.4347 87.6442 11.244 86.9695 11.244C86.2069 11.244 85.5762 11.442 85.0775 11.838C84.5789 12.2193 84.2489 12.762 84.0875 13.466ZM100.633 8.692C101.85 8.692 102.84 9.09533 103.603 9.902C104.395 10.7233 104.791 11.838 104.791 13.246V20H101.953V13.598C101.953 12.8793 101.755 12.322 101.359 11.926C100.977 11.53 100.449 11.332 99.7748 11.332C99.0268 11.332 98.4328 11.5667 97.9928 12.036C97.5674 12.4907 97.3548 13.1653 97.3548 14.06V20H94.5168V9H97.3548V10.232C98.0294 9.20533 99.1221 8.692 100.633 8.692ZM115.574 10.298V9H118.412V20H115.574V18.702C114.723 19.7727 113.528 20.308 111.988 20.308C110.521 20.308 109.26 19.7507 108.204 18.636C107.163 17.5067 106.642 16.128 106.642 14.5C106.642 12.8867 107.163 11.5153 108.204 10.386C109.26 9.25667 110.521 8.692 111.988 8.692C113.528 8.692 114.723 9.22733 115.574 10.298ZM110.338 16.744C110.91 17.316 111.636 17.602 112.516 17.602C113.396 17.602 114.122 17.316 114.694 16.744C115.281 16.1573 115.574 15.4093 115.574 14.5C115.574 13.5907 115.281 12.85 114.694 12.278C114.122 11.6913 113.396 11.398 112.516 11.398C111.636 11.398 110.91 11.6913 110.338 12.278C109.766 12.85 109.48 13.5907 109.48 14.5C109.48 15.4093 109.766 16.1573 110.338 16.744ZM124.506 18.416C124.506 18.9293 124.322 19.3693 123.956 19.736C123.589 20.1027 123.149 20.286 122.636 20.286C122.122 20.286 121.682 20.1027 121.316 19.736C120.949 19.3693 120.766 18.9293 120.766 18.416C120.766 17.9027 120.949 17.4627 121.316 17.096C121.682 16.7293 122.122 16.546 122.636 16.546C123.149 16.546 123.589 16.7293 123.956 17.096C124.322 17.4627 124.506 17.9027 124.506 18.416ZM132.46 14.434L137.014 20H133.714L129.71 15.006V20H126.872V4.6H129.71V13.84L133.494 9H136.882L132.46 14.434ZM144.547 8.692C145.764 8.692 146.754 9.09533 147.517 9.902C148.309 10.7233 148.705 11.838 148.705 13.246V20H145.867V13.598C145.867 12.8793 145.669 12.322 145.273 11.926C144.891 11.53 144.363 11.332 143.689 11.332C142.941 11.332 142.347 11.5667 141.907 12.036C141.481 12.4907 141.269 13.1653 141.269 14.06V20H138.431V4.6H141.269V10.232C141.943 9.20533 143.036 8.692 144.547 8.692ZM160.5 18.636C159.385 19.7507 158.007 20.308 156.364 20.308C154.721 20.308 153.343 19.7507 152.228 18.636C151.113 17.5213 150.556 16.1427 150.556 14.5C150.556 12.872 151.113 11.5007 152.228 10.386C153.357 9.25667 154.736 8.692 156.364 8.692C157.992 8.692 159.371 9.25667 160.5 10.386C161.629 11.5153 162.194 12.8867 162.194 14.5C162.194 16.128 161.629 17.5067 160.5 18.636ZM154.23 16.678C154.802 17.25 155.513 17.536 156.364 17.536C157.215 17.536 157.926 17.25 158.498 16.678C159.07 16.106 159.356 15.38 159.356 14.5C159.356 13.62 159.07 12.894 158.498 12.322C157.926 11.75 157.215 11.464 156.364 11.464C155.513 11.464 154.802 11.75 154.23 12.322C153.673 12.9087 153.394 13.6347 153.394 14.5C153.394 15.3653 153.673 16.0913 154.23 16.678ZM171.621 10.892L166.957 17.338H171.841V20H163.151V18.108L167.793 11.662H163.371V9H171.621V10.892ZM178.653 16.392L181.095 9H184.131L180.127 20C179.555 21.584 178.792 22.728 177.839 23.432C176.9 24.1507 175.727 24.4733 174.319 24.4V21.76C175.067 21.7747 175.668 21.6133 176.123 21.276C176.578 20.9387 176.937 20.396 177.201 19.648L172.691 9H175.793L178.653 16.392ZM193.412 10.298V9H196.25V20H193.412V18.702C192.561 19.7727 191.366 20.308 189.826 20.308C188.359 20.308 187.098 19.7507 186.042 18.636C185.001 17.5067 184.48 16.128 184.48 14.5C184.48 12.8867 185.001 11.5153 186.042 10.386C187.098 9.25667 188.359 8.692 189.826 8.692C191.366 8.692 192.561 9.22733 193.412 10.298ZM188.176 16.744C188.748 17.316 189.474 17.602 190.354 17.602C191.234 17.602 191.96 17.316 192.532 16.744C193.119 16.1573 193.412 15.4093 193.412 14.5C193.412 13.5907 193.119 12.85 192.532 12.278C191.96 11.6913 191.234 11.398 190.354 11.398C189.474 11.398 188.748 11.6913 188.176 12.278C187.604 12.85 187.318 13.5907 187.318 14.5C187.318 15.4093 187.604 16.1573 188.176 16.744ZM200.231 7.68C199.762 7.68 199.351 7.51133 198.999 7.174C198.662 6.822 198.493 6.41133 198.493 5.942C198.493 5.47267 198.662 5.062 198.999 4.71C199.351 4.358 199.762 4.182 200.231 4.182C200.715 4.182 201.126 4.358 201.463 4.71C201.815 5.062 201.991 5.47267 201.991 5.942C201.991 6.41133 201.815 6.822 201.463 7.174C201.126 7.51133 200.715 7.68 200.231 7.68ZM201.661 20H198.823V9H201.661V20ZM210.375 8.692C211.592 8.692 212.582 9.09533 213.345 9.902C214.137 10.7233 214.533 11.838 214.533 13.246V20H211.695V13.598C211.695 12.8793 211.497 12.322 211.101 11.926C210.72 11.53 210.192 11.332 209.517 11.332C208.769 11.332 208.175 11.5667 207.735 12.036C207.31 12.4907 207.097 13.1653 207.097 14.06V20H204.259V9H207.097V10.232C207.772 9.20533 208.864 8.692 210.375 8.692ZM226.328 18.636C225.214 19.7507 223.835 20.308 222.192 20.308C220.55 20.308 219.171 19.7507 218.056 18.636C216.942 17.5213 216.384 16.1427 216.384 14.5C216.384 12.872 216.942 11.5007 218.056 10.386C219.186 9.25667 220.564 8.692 222.192 8.692C223.82 8.692 225.199 9.25667 226.328 10.386C227.458 11.5153 228.022 12.8867 228.022 14.5C228.022 16.128 227.458 17.5067 226.328 18.636ZM220.058 16.678C220.63 17.25 221.342 17.536 222.192 17.536C223.043 17.536 223.754 17.25 224.326 16.678C224.898 16.106 225.184 15.38 225.184 14.5C225.184 13.62 224.898 12.894 224.326 12.322C223.754 11.75 223.043 11.464 222.192 11.464C221.342 11.464 220.63 11.75 220.058 12.322C219.501 12.9087 219.222 13.6347 219.222 14.5C219.222 15.3653 219.501 16.0913 220.058 16.678ZM234.143 16.7L236.827 9H239.951L235.771 20H232.537L228.357 9H231.481L234.143 16.7ZM249.25 10.298V9H252.088V20H249.25V18.702C248.399 19.7727 247.204 20.308 245.664 20.308C244.197 20.308 242.936 19.7507 241.88 18.636C240.838 17.5067 240.318 16.128 240.318 14.5C240.318 12.8867 240.838 11.5153 241.88 10.386C242.936 9.25667 244.197 8.692 245.664 8.692C247.204 8.692 248.399 9.22733 249.25 10.298ZM244.014 16.744C244.586 17.316 245.312 17.602 246.192 17.602C247.072 17.602 247.798 17.316 248.37 16.744C248.956 16.1573 249.25 15.4093 249.25 14.5C249.25 13.5907 248.956 12.85 248.37 12.278C247.798 11.6913 247.072 11.398 246.192 11.398C245.312 11.398 244.586 11.6913 244.014 12.278C243.442 12.85 243.156 13.5907 243.156 14.5C243.156 15.4093 243.442 16.1573 244.014 16.744ZM258.181 18.416C258.181 18.9293 257.998 19.3693 257.631 19.736C257.265 20.1027 256.825 20.286 256.311 20.286C255.798 20.286 255.358 20.1027 254.991 19.736C254.625 19.3693 254.441 18.9293 254.441 18.416C254.441 17.9027 254.625 17.4627 254.991 17.096C255.358 16.7293 255.798 16.546 256.311 16.546C256.825 16.546 257.265 16.7293 257.631 17.096C257.998 17.4627 258.181 17.9027 258.181 18.416ZM269.363 9.638C269.363 10.826 269.055 11.8673 268.439 12.762H268.461L263.665 20H260.189L263.621 14.984C262.022 14.9693 260.717 14.4633 259.705 13.466C258.708 12.4687 258.209 11.1927 258.209 9.638C258.209 8.054 258.722 6.77067 259.749 5.788C260.79 4.79067 262.132 4.292 263.775 4.292C265.418 4.292 266.76 4.79067 267.801 5.788C268.842 6.78533 269.363 8.06867 269.363 9.638ZM261.223 9.638C261.223 10.386 261.465 10.9947 261.949 11.464C262.433 11.9187 263.042 12.146 263.775 12.146C264.538 12.146 265.154 11.9187 265.623 11.464C266.107 10.9947 266.349 10.386 266.349 9.638C266.349 8.89 266.107 8.28867 265.623 7.834C265.154 7.37933 264.538 7.152 263.775 7.152C263.042 7.152 262.433 7.38667 261.949 7.856C261.465 8.31067 261.223 8.90467 261.223 9.638ZM280.41 20H270.114V17.734L275.372 12.322C276.545 11.0753 277.132 10.0487 277.132 9.242C277.132 8.64067 276.941 8.15667 276.56 7.79C276.193 7.42333 275.716 7.24 275.13 7.24C273.956 7.24 273.098 7.84133 272.556 9.044L270.004 7.548C270.473 6.50667 271.155 5.70733 272.05 5.15C272.959 4.578 273.971 4.292 275.086 4.292C276.479 4.292 277.674 4.732 278.672 5.612C279.669 6.47733 280.168 7.65067 280.168 9.132C280.168 10.7307 279.324 12.3733 277.638 14.06L274.624 17.074H280.41V20Z" fill="black"/>
<path d="M86 33L88.4697 40.6008H96.4616L89.996 45.2984L92.4656 52.8992L86 48.2016L79.5344 52.8992L82.004 45.2984L75.5384 40.6008H83.5303L86 33Z" fill="#FEBB10"/>
<path d="M112 33L114.47 40.6008H122.462L115.996 45.2984L118.466 52.8992L112 48.2016L105.534 52.8992L108.004 45.2984L101.538 40.6008H109.53L112 33Z" fill="#FEBB10"/>
<path d="M138.44 33L141.008 40.6008H149.32L142.596 45.2984L145.164 52.8992L138.44 48.2016L131.716 52.8992L134.284 45.2984L127.56 40.6008H135.872L138.44 33Z" fill="#FEBB10"/>
<path d="M164.881 33L167.351 40.6008H175.342L168.877 45.2984L171.346 52.8992L164.881 48.2016L158.415 52.8992L160.885 45.2984L154.419 40.6008H162.411L164.881 33Z" fill="#FEBB10"/>
<path d="M190.881 33L193.351 40.6008H201.342L194.877 45.2984L197.346 52.8992L190.881 48.2016L184.415 52.8992L186.885 45.2984L180.419 40.6008H188.411L190.881 33Z" fill="#FEBB10"/>
</svg>
