<svg width="298" height="55" viewBox="0 0 298 55" fill="none" xmlns="http://www.w3.org/2000/svg">
<circle cx="27.5" cy="27.5" r="27.5" fill="#302E3A"/>
<path d="M22.08 39.444C21.464 39.444 20.8553 39.3487 20.254 39.158C19.6527 38.9673 19.1613 38.7033 18.78 38.366L20.034 35.924C20.298 36.1587 20.5987 36.342 20.936 36.474C21.288 36.606 21.6327 36.672 21.97 36.672C22.454 36.672 22.8353 36.5547 23.114 36.32C23.4073 36.1 23.6713 35.726 23.906 35.198L24.522 33.746L24.786 33.372L29.032 23.164H32.332L26.986 35.726C26.6047 36.6793 26.1647 37.4273 25.666 37.97C25.182 38.5127 24.6393 38.894 24.038 39.114C23.4513 39.334 22.7987 39.444 22.08 39.444ZM24.104 35.462L18.824 23.164H22.366L26.458 33.064L24.104 35.462Z" fill="white"/>
<path d="M81.028 16.392L83.47 9H86.506L82.502 20C81.93 21.584 81.1673 22.728 80.214 23.432C79.2753 24.1507 78.102 24.4733 76.694 24.4V21.76C77.442 21.7747 78.0433 21.6133 78.498 21.276C78.9527 20.9387 79.312 20.396 79.576 19.648L75.066 9H78.168L81.028 16.392ZM95.7869 10.298V9H98.6249V20H95.7869V18.702C94.9362 19.7727 93.7409 20.308 92.2009 20.308C90.7342 20.308 89.4729 19.7507 88.4169 18.636C87.3756 17.5067 86.8549 16.128 86.8549 14.5C86.8549 12.8867 87.3756 11.5153 88.4169 10.386C89.4729 9.25667 90.7342 8.692 92.2009 8.692C93.7409 8.692 94.9362 9.22733 95.7869 10.298ZM90.5509 16.744C91.1229 17.316 91.8489 17.602 92.7289 17.602C93.6089 17.602 94.3349 17.316 94.9069 16.744C95.4936 16.1573 95.7869 15.4093 95.7869 14.5C95.7869 13.5907 95.4936 12.85 94.9069 12.278C94.3349 11.6913 93.6089 11.398 92.7289 11.398C91.8489 11.398 91.1229 11.6913 90.5509 12.278C89.9789 12.85 89.6929 13.5907 89.6929 14.5C89.6929 15.4093 89.9789 16.1573 90.5509 16.744ZM109.624 10.364V9H112.396V19.472C112.396 21.1587 111.832 22.4567 110.702 23.366C109.588 24.2607 108.238 24.708 106.654 24.708C104.161 24.708 102.423 23.8133 101.44 22.024L103.86 20.638C104.403 21.6647 105.364 22.178 106.742 22.178C107.637 22.178 108.341 21.9433 108.854 21.474C109.368 21.0047 109.624 20.3373 109.624 19.472V18.284C108.788 19.3987 107.615 19.956 106.104 19.956C104.55 19.956 103.244 19.4133 102.188 18.328C101.147 17.2133 100.626 15.8787 100.626 14.324C100.626 12.7693 101.154 11.442 102.21 10.342C103.266 9.242 104.564 8.692 106.104 8.692C107.615 8.692 108.788 9.24933 109.624 10.364ZM108.744 16.502C109.331 15.93 109.624 15.204 109.624 14.324C109.624 13.444 109.331 12.7327 108.744 12.19C108.172 11.618 107.439 11.332 106.544 11.332C105.664 11.332 104.924 11.618 104.322 12.19C103.75 12.7327 103.464 13.444 103.464 14.324C103.464 15.204 103.75 15.93 104.322 16.502C104.909 17.0593 105.65 17.338 106.544 17.338C107.439 17.338 108.172 17.0593 108.744 16.502ZM124.342 18.636C123.227 19.7507 121.849 20.308 120.206 20.308C118.563 20.308 117.185 19.7507 116.07 18.636C114.955 17.5213 114.398 16.1427 114.398 14.5C114.398 12.872 114.955 11.5007 116.07 10.386C117.199 9.25667 118.578 8.692 120.206 8.692C121.834 8.692 123.213 9.25667 124.342 10.386C125.471 11.5153 126.036 12.8867 126.036 14.5C126.036 16.128 125.471 17.5067 124.342 18.636ZM118.072 16.678C118.644 17.25 119.355 17.536 120.206 17.536C121.057 17.536 121.768 17.25 122.34 16.678C122.912 16.106 123.198 15.38 123.198 14.5C123.198 13.62 122.912 12.894 122.34 12.322C121.768 11.75 121.057 11.464 120.206 11.464C119.355 11.464 118.644 11.75 118.072 12.322C117.515 12.9087 117.236 13.6347 117.236 14.5C117.236 15.3653 117.515 16.0913 118.072 16.678ZM136.37 10.298V4.6H139.208V20H136.37V18.702C135.534 19.7727 134.346 20.308 132.806 20.308C131.325 20.308 130.056 19.7507 129 18.636C127.959 17.5067 127.438 16.128 127.438 14.5C127.438 12.8867 127.959 11.5153 129 10.386C130.056 9.25667 131.325 8.692 132.806 8.692C134.346 8.692 135.534 9.22733 136.37 10.298ZM131.134 16.744C131.736 17.316 132.469 17.602 133.334 17.602C134.214 17.602 134.94 17.316 135.512 16.744C136.084 16.1573 136.37 15.4093 136.37 14.5C136.37 13.5907 136.084 12.85 135.512 12.278C134.94 11.6913 134.214 11.398 133.334 11.398C132.454 11.398 131.721 11.6913 131.134 12.278C130.562 12.85 130.276 13.5907 130.276 14.5C130.276 15.4093 130.562 16.1573 131.134 16.744ZM143.212 7.68C142.743 7.68 142.332 7.51133 141.98 7.174C141.643 6.822 141.474 6.41133 141.474 5.942C141.474 5.47267 141.643 5.062 141.98 4.71C142.332 4.358 142.743 4.182 143.212 4.182C143.696 4.182 144.107 4.358 144.444 4.71C144.796 5.062 144.972 5.47267 144.972 5.942C144.972 6.41133 144.796 6.822 144.444 7.174C144.107 7.51133 143.696 7.68 143.212 7.68ZM144.642 20H141.804V9H144.642V20ZM153.355 8.692C154.573 8.692 155.563 9.09533 156.325 9.902C157.117 10.7233 157.513 11.838 157.513 13.246V20H154.675V13.598C154.675 12.8793 154.477 12.322 154.081 11.926C153.7 11.53 153.172 11.332 152.497 11.332C151.749 11.332 151.155 11.5667 150.715 12.036C150.29 12.4907 150.077 13.1653 150.077 14.06V20H147.239V9H150.077V10.232C150.752 9.20533 151.845 8.692 153.355 8.692ZM162.555 12.124C162.555 12.5933 163.222 12.9967 164.557 13.334C165.026 13.4367 165.451 13.5613 165.833 13.708C166.214 13.84 166.595 14.038 166.977 14.302C167.373 14.5513 167.681 14.8887 167.901 15.314C168.121 15.7393 168.231 16.2307 168.231 16.788C168.231 17.9173 167.805 18.79 166.955 19.406C166.104 20.0073 165.055 20.308 163.809 20.308C161.55 20.308 160.01 19.4353 159.189 17.69L161.653 16.304C161.99 17.2573 162.709 17.734 163.809 17.734C164.821 17.734 165.327 17.4187 165.327 16.788C165.327 16.3187 164.659 15.9153 163.325 15.578C162.826 15.446 162.401 15.314 162.049 15.182C161.697 15.05 161.315 14.8593 160.905 14.61C160.494 14.346 160.179 14.016 159.959 13.62C159.753 13.2093 159.651 12.7327 159.651 12.19C159.651 11.1047 160.047 10.254 160.839 9.638C161.645 9.00733 162.643 8.692 163.831 8.692C164.725 8.692 165.539 8.89733 166.273 9.308C167.006 9.704 167.585 10.276 168.011 11.024L165.591 12.344C165.239 11.596 164.652 11.222 163.831 11.222C163.464 11.222 163.156 11.31 162.907 11.486C162.672 11.6473 162.555 11.86 162.555 12.124ZM175.644 14.434L180.198 20H176.898L172.894 15.006V20H170.056V4.6H172.894V13.84L176.678 9H180.066L175.644 14.434ZM189.179 10.298V9H192.017V20H189.179V18.702C188.329 19.7727 187.133 20.308 185.593 20.308C184.127 20.308 182.865 19.7507 181.809 18.636C180.768 17.5067 180.247 16.128 180.247 14.5C180.247 12.8867 180.768 11.5153 181.809 10.386C182.865 9.25667 184.127 8.692 185.593 8.692C187.133 8.692 188.329 9.22733 189.179 10.298ZM183.943 16.744C184.515 17.316 185.241 17.602 186.121 17.602C187.001 17.602 187.727 17.316 188.299 16.744C188.886 16.1573 189.179 15.4093 189.179 14.5C189.179 13.5907 188.886 12.85 188.299 12.278C187.727 11.6913 187.001 11.398 186.121 11.398C185.241 11.398 184.515 11.6913 183.943 12.278C183.371 12.85 183.085 13.5907 183.085 14.5C183.085 15.4093 183.371 16.1573 183.943 16.744ZM199.321 16.392L201.763 9H204.799L200.795 20C200.223 21.584 199.46 22.728 198.507 23.432C197.568 24.1507 196.395 24.4733 194.987 24.4V21.76C195.735 21.7747 196.336 21.6133 196.791 21.276C197.246 20.9387 197.605 20.396 197.869 19.648L193.359 9H196.461L199.321 16.392ZM214.08 10.298V9H216.918V20H214.08V18.702C213.229 19.7727 212.034 20.308 210.494 20.308C209.027 20.308 207.766 19.7507 206.71 18.636C205.669 17.5067 205.148 16.128 205.148 14.5C205.148 12.8867 205.669 11.5153 206.71 10.386C207.766 9.25667 209.027 8.692 210.494 8.692C212.034 8.692 213.229 9.22733 214.08 10.298ZM208.844 16.744C209.416 17.316 210.142 17.602 211.022 17.602C211.902 17.602 212.628 17.316 213.2 16.744C213.787 16.1573 214.08 15.4093 214.08 14.5C214.08 13.5907 213.787 12.85 213.2 12.278C212.628 11.6913 211.902 11.398 211.022 11.398C210.142 11.398 209.416 11.6913 208.844 12.278C208.272 12.85 207.986 13.5907 207.986 14.5C207.986 15.4093 208.272 16.1573 208.844 16.744ZM223.011 18.416C223.011 18.9293 222.828 19.3693 222.461 19.736C222.095 20.1027 221.655 20.286 221.141 20.286C220.628 20.286 220.188 20.1027 219.821 19.736C219.455 19.3693 219.271 18.9293 219.271 18.416C219.271 17.9027 219.455 17.4627 219.821 17.096C220.188 16.7293 220.628 16.546 221.141 16.546C221.655 16.546 222.095 16.7293 222.461 17.096C222.828 17.4627 223.011 17.9027 223.011 18.416ZM228.364 16.7L231.048 9H234.172L229.992 20H226.758L222.578 9H225.702L228.364 16.7ZM236.948 7.68C236.479 7.68 236.068 7.51133 235.716 7.174C235.379 6.822 235.21 6.41133 235.21 5.942C235.21 5.47267 235.379 5.062 235.716 4.71C236.068 4.358 236.479 4.182 236.948 4.182C237.432 4.182 237.843 4.358 238.18 4.71C238.532 5.062 238.708 5.47267 238.708 5.942C238.708 6.41133 238.532 6.822 238.18 7.174C237.843 7.51133 237.432 7.68 236.948 7.68ZM238.378 20H235.54V9H238.378V20ZM247.268 9V11.728H244.782V16.304C244.782 16.6853 244.877 16.964 245.068 17.14C245.258 17.316 245.537 17.4187 245.904 17.448C246.27 17.4627 246.725 17.4553 247.268 17.426V20C245.346 20.22 243.975 20.044 243.154 19.472C242.347 18.8853 241.944 17.8293 241.944 16.304V11.728H240.03V9H241.944V6.778L244.782 5.92V9H247.268ZM257.285 10.298V9H260.123V20H257.285V18.702C256.434 19.7727 255.239 20.308 253.699 20.308C252.232 20.308 250.971 19.7507 249.915 18.636C248.874 17.5067 248.353 16.128 248.353 14.5C248.353 12.8867 248.874 11.5153 249.915 10.386C250.971 9.25667 252.232 8.692 253.699 8.692C255.239 8.692 256.434 9.22733 257.285 10.298ZM252.049 16.744C252.621 17.316 253.347 17.602 254.227 17.602C255.107 17.602 255.833 17.316 256.405 16.744C256.992 16.1573 257.285 15.4093 257.285 14.5C257.285 13.5907 256.992 12.85 256.405 12.278C255.833 11.6913 255.107 11.398 254.227 11.398C253.347 11.398 252.621 11.6913 252.049 12.278C251.477 12.85 251.191 13.5907 251.191 14.5C251.191 15.4093 251.477 16.1573 252.049 16.744ZM265.534 20H262.696V3.94H265.534V20ZM269.54 7.68C269.071 7.68 268.66 7.51133 268.308 7.174C267.971 6.822 267.802 6.41133 267.802 5.942C267.802 5.47267 267.971 5.062 268.308 4.71C268.66 4.358 269.071 4.182 269.54 4.182C270.024 4.182 270.435 4.358 270.772 4.71C271.124 5.062 271.3 5.47267 271.3 5.942C271.3 6.41133 271.124 6.822 270.772 7.174C270.435 7.51133 270.024 7.68 269.54 7.68ZM270.97 20H268.132V9H270.97V20ZM278.298 16.392L280.74 9H283.776L279.772 20C279.2 21.584 278.437 22.728 277.484 23.432C276.545 24.1507 275.372 24.4733 273.964 24.4V21.76C274.712 21.7747 275.313 21.6133 275.768 21.276C276.222 20.9387 276.582 20.396 276.846 19.648L272.336 9H275.438L278.298 16.392ZM293.056 10.298V9H295.894V20H293.056V18.702C292.206 19.7727 291.01 20.308 289.47 20.308C288.004 20.308 286.742 19.7507 285.686 18.636C284.645 17.5067 284.124 16.128 284.124 14.5C284.124 12.8867 284.645 11.5153 285.686 10.386C286.742 9.25667 288.004 8.692 289.47 8.692C291.01 8.692 292.206 9.22733 293.056 10.298ZM287.82 16.744C288.392 17.316 289.118 17.602 289.998 17.602C290.878 17.602 291.604 17.316 292.176 16.744C292.763 16.1573 293.056 15.4093 293.056 14.5C293.056 13.5907 292.763 12.85 292.176 12.278C291.604 11.6913 290.878 11.398 289.998 11.398C289.118 11.398 288.392 11.6913 287.82 12.278C287.248 12.85 286.962 13.5907 286.962 14.5C286.962 15.4093 287.248 16.1573 287.82 16.744Z" fill="black"/>
<path d="M86 33L88.4697 40.6008H96.4616L89.996 45.2984L92.4656 52.8992L86 48.2016L79.5344 52.8992L82.004 45.2984L75.5384 40.6008H83.5303L86 33Z" fill="#FEBB10"/>
<path d="M112 33L114.47 40.6008H122.462L115.996 45.2984L118.466 52.8992L112 48.2016L105.534 52.8992L108.004 45.2984L101.538 40.6008H109.53L112 33Z" fill="#FEBB10"/>
<path d="M138.44 33L141.008 40.6008H149.32L142.596 45.2984L145.164 52.8992L138.44 48.2016L131.716 52.8992L134.284 45.2984L127.56 40.6008H135.872L138.44 33Z" fill="#FEBB10"/>
<path d="M164.881 33L167.351 40.6008H175.342L168.877 45.2984L171.346 52.8992L164.881 48.2016L158.415 52.8992L160.885 45.2984L154.419 40.6008H162.411L164.881 33Z" fill="#FEBB10"/>
<path d="M190.881 33L193.351 40.6008H201.342L194.877 45.2984L197.346 52.8992L190.881 48.2016L184.415 52.8992L186.885 45.2984L180.419 40.6008H188.411L190.881 33Z" fill="#FEBB10"/>
</svg>
