<svg width="192" height="55" viewBox="0 0 192 55" fill="none" xmlns="http://www.w3.org/2000/svg">
<circle cx="27.5" cy="27.5" r="27.5" fill="#302E3A"/>
<path d="M20.914 35V19.6H28.086C29.8753 19.6 31.2687 19.9447 32.266 20.634C33.2633 21.3233 33.762 22.306 33.762 23.582C33.762 24.8433 33.2927 25.826 32.354 26.53C31.4153 27.2193 30.1687 27.564 28.614 27.564L29.032 26.64C30.7627 26.64 32.1047 26.9847 33.058 27.674C34.0113 28.3633 34.488 29.3607 34.488 30.666C34.488 32.0153 33.9747 33.0787 32.948 33.856C31.936 34.6187 30.4547 35 28.504 35H20.914ZM24.456 32.36H28.372C29.1933 32.36 29.8167 32.1987 30.242 31.876C30.6673 31.5533 30.88 31.0547 30.88 30.38C30.88 29.7347 30.6673 29.258 30.242 28.95C29.8167 28.6273 29.1933 28.466 28.372 28.466H24.456V32.36ZM24.456 25.98H27.778C28.5553 25.98 29.142 25.826 29.538 25.518C29.934 25.1953 30.132 24.726 30.132 24.11C30.132 23.494 29.934 23.032 29.538 22.724C29.142 22.4013 28.5553 22.24 27.778 22.24H24.456V25.98Z" fill="white"/>
<path d="M85.736 13.014C87.0853 13.7913 87.76 14.9647 87.76 16.534C87.76 17.8393 87.298 18.91 86.374 19.746C85.45 20.582 84.3133 21 82.964 21H76.43V5.6H82.502C83.8073 5.6 84.9147 6.01067 85.824 6.832C86.7333 7.65333 87.188 8.68733 87.188 9.934C87.188 11.21 86.704 12.2367 85.736 13.014ZM82.502 8.438H79.466V11.826H82.502C82.9713 11.826 83.36 11.6647 83.668 11.342C83.9907 11.0193 84.152 10.616 84.152 10.132C84.152 9.648 83.998 9.24467 83.69 8.922C83.382 8.59933 82.986 8.438 82.502 8.438ZM79.466 18.162H82.964C83.4773 18.162 83.9027 17.9933 84.24 17.656C84.5773 17.304 84.746 16.864 84.746 16.336C84.746 15.8227 84.5773 15.3973 84.24 15.06C83.9027 14.708 83.4773 14.532 82.964 14.532H79.466V18.162ZM90.065 10H98.777V21H95.939V12.728H92.903V16.402C92.903 19.79 91.3557 21.3227 88.261 21V18.338C88.8477 18.4847 89.295 18.382 89.603 18.03C89.911 17.678 90.065 17.084 90.065 16.248V10ZM109.709 11.298V10H112.547V21H109.709V19.702C108.858 20.7727 107.663 21.308 106.123 21.308C104.656 21.308 103.395 20.7507 102.339 19.636C101.297 18.5067 100.777 17.128 100.777 15.5C100.777 13.8867 101.297 12.5153 102.339 11.386C103.395 10.2567 104.656 9.692 106.123 9.692C107.663 9.692 108.858 10.2273 109.709 11.298ZM104.473 17.744C105.045 18.316 105.771 18.602 106.651 18.602C107.531 18.602 108.257 18.316 108.829 17.744C109.415 17.1573 109.709 16.4093 109.709 15.5C109.709 14.5907 109.415 13.85 108.829 13.278C108.257 12.6913 107.531 12.398 106.651 12.398C105.771 12.398 105.045 12.6913 104.473 13.278C103.901 13.85 103.615 14.5907 103.615 15.5C103.615 16.4093 103.901 17.1573 104.473 17.744ZM125.02 10V18.338H126.472V23.948H123.7V21H116.88V23.948H114.108V18.338H115.45C116.081 17.3993 116.396 16.1013 116.396 14.444V10H125.02ZM118.486 18.338H122.248V12.552H119.168V14.444C119.168 16.028 118.941 17.326 118.486 18.338ZM131.041 16.248L136.211 10H138.323V21H135.551V14.752L130.381 21H128.269V10H131.041V16.248ZM149.569 10H152.363V21H149.613V14.576L146.819 18.976H146.467L143.651 14.532V21H140.923V10H143.717L146.643 14.62L149.569 10ZM157.724 16.248L162.894 10H165.006V21H162.234V14.752L157.064 21H154.952V10H157.724V16.248ZM174.009 9.692C175.49 9.692 176.751 10.2567 177.793 11.386C178.849 12.5153 179.377 13.8867 179.377 15.5C179.377 17.1427 178.849 18.5213 177.793 19.636C176.766 20.7507 175.505 21.308 174.009 21.308C172.469 21.308 171.281 20.7727 170.445 19.702V25.4H167.607V10H170.445V11.298C171.281 10.2273 172.469 9.692 174.009 9.692ZM171.303 17.744C171.875 18.316 172.601 18.602 173.481 18.602C174.361 18.602 175.087 18.316 175.659 17.744C176.245 17.1573 176.539 16.4093 176.539 15.5C176.539 14.5907 176.245 13.85 175.659 13.278C175.087 12.6913 174.361 12.398 173.481 12.398C172.601 12.398 171.875 12.6913 171.303 13.278C170.731 13.85 170.445 14.5907 170.445 15.5C170.445 16.4093 170.731 17.1573 171.303 17.744Z" fill="black"/>
<path d="M85 34L87.2451 40.9098H94.5106L88.6327 45.1803L90.8779 52.0902L85 47.8197L79.1221 52.0902L81.3673 45.1803L75.4894 40.9098H82.7549L85 34Z" fill="#FEBB10"/>
<path d="M109 34L111.245 40.9098H118.511L112.633 45.1803L114.878 52.0902L109 47.8197L103.122 52.0902L105.367 45.1803L99.4894 40.9098H106.755L109 34Z" fill="#FEBB10"/>
<path d="M133.4 34L135.735 40.9098H143.291L137.178 45.1803L139.513 52.0902L133.4 47.8197L127.287 52.0902L129.622 45.1803L123.509 40.9098H131.065L133.4 34Z" fill="#FEBB10"/>
<path d="M157.801 34L160.046 40.9098H167.311L161.433 45.1803L163.679 52.0902L157.801 47.8197L151.923 52.0902L154.168 45.1803L148.29 40.9098H155.556L157.801 34Z" fill="#FEBB10"/>
<path d="M181.801 34L184.046 40.9098H191.311L185.433 45.1803L187.679 52.0902L181.801 47.8197L175.923 52.0902L178.168 45.1803L172.29 40.9098H179.556L181.801 34Z" fill="#FEBB10"/>
</svg>
