<svg width="55" height="55" viewBox="0 0 55 55" fill="none" xmlns="http://www.w3.org/2000/svg">
<circle cx="27.5" cy="27.5" r="27.5" fill="#302E3A"/>
<path d="M20.914 35V19.6H28.086C29.8753 19.6 31.2687 19.9447 32.266 20.634C33.2633 21.3233 33.762 22.306 33.762 23.582C33.762 24.8433 33.2927 25.826 32.354 26.53C31.4153 27.2193 30.1687 27.564 28.614 27.564L29.032 26.64C30.7627 26.64 32.1047 26.9847 33.058 27.674C34.0113 28.3633 34.488 29.3607 34.488 30.666C34.488 32.0153 33.9747 33.0787 32.948 33.856C31.936 34.6187 30.4547 35 28.504 35H20.914ZM24.456 32.36H28.372C29.1933 32.36 29.8167 32.1987 30.242 31.876C30.6673 31.5533 30.88 31.0547 30.88 30.38C30.88 29.7347 30.6673 29.258 30.242 28.95C29.8167 28.6273 29.1933 28.466 28.372 28.466H24.456V32.36ZM24.456 25.98H27.778C28.5553 25.98 29.142 25.826 29.538 25.518C29.934 25.1953 30.132 24.726 30.132 24.11C30.132 23.494 29.934 23.032 29.538 22.724C29.142 22.4013 28.5553 22.24 27.778 22.24H24.456V25.98Z" fill="white"/>
</svg>
