<svg width="55" height="55" viewBox="0 0 55 55" fill="none" xmlns="http://www.w3.org/2000/svg">
<circle cx="27.5" cy="27.5" r="27.5" fill="#302E3A"/>
<path d="M20.584 35V23.164H23.862V26.442L23.246 25.452C23.6713 24.66 24.28 24.0513 25.072 23.626C25.864 23.2007 26.766 22.988 27.778 22.988C28.7167 22.988 29.5527 23.1787 30.286 23.56C31.034 23.9267 31.6207 24.4987 32.046 25.276C32.4713 26.0387 32.684 27.0213 32.684 28.224V35H29.252V28.752C29.252 27.7987 29.0393 27.0947 28.614 26.64C28.2033 26.1853 27.6167 25.958 26.854 25.958C26.3113 25.958 25.82 26.0753 25.38 26.31C24.9547 26.53 24.6173 26.8747 24.368 27.344C24.1333 27.8133 24.016 28.4147 24.016 29.148V35H20.584Z" fill="white"/>
</svg>
