<svg width="55" height="55" viewBox="0 0 55 55" fill="none" xmlns="http://www.w3.org/2000/svg">
<circle cx="27.5" cy="27.5" r="27.5" fill="#302E3A"/>
<path d="M22.08 39.444C21.464 39.444 20.8553 39.3487 20.254 39.158C19.6527 38.9673 19.1613 38.7033 18.78 38.366L20.034 35.924C20.298 36.1587 20.5987 36.342 20.936 36.474C21.288 36.606 21.6327 36.672 21.97 36.672C22.454 36.672 22.8353 36.5547 23.114 36.32C23.4073 36.1 23.6713 35.726 23.906 35.198L24.522 33.746L24.786 33.372L29.032 23.164H32.332L26.986 35.726C26.6047 36.6793 26.1647 37.4273 25.666 37.97C25.182 38.5127 24.6393 38.894 24.038 39.114C23.4513 39.334 22.7987 39.444 22.08 39.444ZM24.104 35.462L18.824 23.164H22.366L26.458 33.064L24.104 35.462Z" fill="white"/>
</svg>
