<svg width="22" height="22" viewBox="0 0 22 22" fill="none" xmlns="http://www.w3.org/2000/svg">
<path opacity="0.9" d="M16.4994 22H5.49935C4.28422 21.9985 3.11928 21.5152 2.26005 20.656C1.40082 19.7967 0.917471 18.6318 0.916016 17.4167V4.58333C0.917471 3.3682 1.40082 2.20326 2.26005 1.34403C3.11928 0.484808 4.28422 0.00145554 5.49935 0L16.4994 0C17.7145 0.00145554 18.8794 0.484808 19.7386 1.34403C20.5979 2.20326 21.0812 3.3682 21.0827 4.58333V17.4167C21.0812 18.6318 20.5979 19.7967 19.7386 20.656C18.8794 21.5152 17.7145 21.9985 16.4994 22ZM5.49935 1.83333C4.77 1.83333 4.07053 2.12306 3.55481 2.63879C3.03908 3.15451 2.74935 3.85399 2.74935 4.58333V17.4167C2.74935 18.146 3.03908 18.8455 3.55481 19.3612C4.07053 19.8769 4.77 20.1667 5.49935 20.1667H16.4994C17.2287 20.1667 17.9282 19.8769 18.4439 19.3612C18.9596 18.8455 19.2493 18.146 19.2494 17.4167V4.58333C19.2493 3.85399 18.9596 3.15451 18.4439 2.63879C17.9282 2.12306 17.2287 1.83333 16.4994 1.83333H5.49935ZM14.666 9.16667H7.33268C6.60334 9.16667 5.90386 8.87694 5.38814 8.36121C4.87241 7.84549 4.58268 7.14601 4.58268 6.41667C4.58268 5.68732 4.87241 4.98785 5.38814 4.47212C5.90386 3.9564 6.60334 3.66667 7.33268 3.66667H14.666C15.3954 3.66667 16.0948 3.9564 16.6106 4.47212C17.1263 4.98785 17.416 5.68732 17.416 6.41667C17.416 7.14601 17.1263 7.84549 16.6106 8.36121C16.0948 8.87694 15.3954 9.16667 14.666 9.16667ZM7.33268 5.5C7.08957 5.5 6.85641 5.59658 6.6845 5.76849C6.51259 5.94039 6.41602 6.17355 6.41602 6.41667C6.41602 6.65978 6.51259 6.89294 6.6845 7.06485C6.85641 7.23676 7.08957 7.33333 7.33268 7.33333H14.666C14.9091 7.33333 15.1423 7.23676 15.3142 7.06485C15.4861 6.89294 15.5827 6.65978 15.5827 6.41667C15.5827 6.17355 15.4861 5.94039 15.3142 5.76849C15.1423 5.59658 14.9091 5.5 14.666 5.5H7.33268ZM5.49935 11.9167C5.31805 11.9167 5.14082 11.9704 4.99008 12.0712C4.83933 12.1719 4.72184 12.315 4.65246 12.4825C4.58308 12.65 4.56493 12.8344 4.6003 13.0122C4.63567 13.19 4.72297 13.3533 4.85117 13.4815C4.97937 13.6097 5.1427 13.697 5.32052 13.7324C5.49833 13.7678 5.68264 13.7496 5.85014 13.6802C6.01764 13.6108 6.16081 13.4934 6.26153 13.3426C6.36225 13.1919 6.41602 13.0146 6.41602 12.8333C6.41602 12.5902 6.31944 12.3571 6.14753 12.1852C5.97562 12.0132 5.74246 11.9167 5.49935 11.9167ZM9.16602 11.9167C8.98472 11.9167 8.80749 11.9704 8.65674 12.0712C8.506 12.1719 8.38851 12.315 8.31913 12.4825C8.24975 12.65 8.23159 12.8344 8.26696 13.0122C8.30233 13.19 8.38964 13.3533 8.51784 13.4815C8.64603 13.6097 8.80937 13.697 8.98718 13.7324C9.165 13.7678 9.34931 13.7496 9.51681 13.6802C9.68431 13.6108 9.82747 13.4934 9.9282 13.3426C10.0289 13.1919 10.0827 13.0146 10.0827 12.8333C10.0827 12.5902 9.98611 12.3571 9.8142 12.1852C9.64229 12.0132 9.40913 11.9167 9.16602 11.9167ZM12.8327 11.9167C12.6514 11.9167 12.4742 11.9704 12.3234 12.0712C12.1727 12.1719 12.0552 12.315 11.9858 12.4825C11.9164 12.65 11.8983 12.8344 11.9336 13.0122C11.969 13.19 12.0563 13.3533 12.1845 13.4815C12.3127 13.6097 12.476 13.697 12.6539 13.7324C12.8317 13.7678 13.016 13.7496 13.1835 13.6802C13.351 13.6108 13.4941 13.4934 13.5949 13.3426C13.6956 13.1919 13.7493 13.0146 13.7493 12.8333C13.7493 12.5902 13.6528 12.3571 13.4809 12.1852C13.309 12.0132 13.0758 11.9167 12.8327 11.9167ZM5.49935 15.5833C5.31805 15.5833 5.14082 15.6371 4.99008 15.7378C4.83933 15.8385 4.72184 15.9817 4.65246 16.1492C4.58308 16.3167 4.56493 16.501 4.6003 16.6788C4.63567 16.8566 4.72297 17.02 4.85117 17.1482C4.97937 17.2764 5.1427 17.3637 5.32052 17.3991C5.49833 17.4344 5.68264 17.4163 5.85014 17.3469C6.01764 17.2775 6.16081 17.16 6.26153 17.0093C6.36225 16.8585 6.41602 16.6813 6.41602 16.5C6.41602 16.2569 6.31944 16.0237 6.14753 15.8518C5.97562 15.6799 5.74246 15.5833 5.49935 15.5833ZM9.16602 15.5833C8.98472 15.5833 8.80749 15.6371 8.65674 15.7378C8.506 15.8385 8.38851 15.9817 8.31913 16.1492C8.24975 16.3167 8.23159 16.501 8.26696 16.6788C8.30233 16.8566 8.38964 17.02 8.51784 17.1482C8.64603 17.2764 8.80937 17.3637 8.98718 17.3991C9.165 17.4344 9.34931 17.4163 9.51681 17.3469C9.68431 17.2775 9.82747 17.16 9.9282 17.0093C10.0289 16.8585 10.0827 16.6813 10.0827 16.5C10.0827 16.2569 9.98611 16.0237 9.8142 15.8518C9.64229 15.6799 9.40913 15.5833 9.16602 15.5833ZM16.4994 11.9167C16.3181 11.9167 16.1408 11.9704 15.9901 12.0712C15.8393 12.1719 15.7218 12.315 15.6525 12.4825C15.5831 12.65 15.5649 12.8344 15.6003 13.0122C15.6357 13.19 15.723 13.3533 15.8512 13.4815C15.9794 13.6097 16.1427 13.697 16.3205 13.7324C16.4983 13.7678 16.6826 13.7496 16.8501 13.6802C17.0176 13.6108 17.1608 13.4934 17.2615 13.3426C17.3623 13.1919 17.416 13.0146 17.416 12.8333C17.416 12.5902 17.3194 12.3571 17.1475 12.1852C16.9756 12.0132 16.7425 11.9167 16.4994 11.9167ZM17.416 16.5C17.416 16.2569 17.3194 16.0237 17.1475 15.8518C16.9756 15.6799 16.7425 15.5833 16.4994 15.5833H12.8327C12.5896 15.5833 12.3564 15.6799 12.1845 15.8518C12.0126 16.0237 11.916 16.2569 11.916 16.5C11.916 16.7431 12.0126 16.9763 12.1845 17.1482C12.3564 17.3201 12.5896 17.4167 12.8327 17.4167H16.4994C16.7425 17.4167 16.9756 17.3201 17.1475 17.1482C17.3194 16.9763 17.416 16.7431 17.416 16.5Z" fill="black"/>
</svg>
