<svg width="134" height="50" viewBox="0 0 134 50" fill="none" xmlns="http://www.w3.org/2000/svg">
<path fill-rule="evenodd" clip-rule="evenodd" d="M134 15.229C134 23.6393 127.151 30.4577 118.701 30.4577C110.252 30.4577 103.402 23.6393 103.402 15.229C103.402 6.81838 110.252 0 118.701 0C127.151 0 134 6.81838 134 15.229Z" fill="#CE1780"/>
<path fill-rule="evenodd" clip-rule="evenodd" d="M117.489 14.0567L116.604 16.4974C116.901 15.683 117.196 14.8685 117.494 14.0567H117.489ZM125.204 14.814C126.469 14.3208 127.104 13.3705 127.104 11.9587C127.104 9.72761 125.534 8.61206 122.393 8.61206H121.723C121.334 9.68362 120.942 10.7544 120.551 11.8256H121.785C122.14 11.8256 122.413 11.917 122.601 12.0994C122.792 12.2822 122.886 12.5188 122.886 12.8102C122.886 13.0867 122.792 13.3187 122.601 13.5086C122.425 13.685 122.178 13.779 121.859 13.791L121.856 13.8014H119.829C119.577 14.4909 119.324 15.1815 119.073 15.8703C118.998 16.0755 118.924 16.2804 118.847 16.4851C118.922 16.4851 118.998 16.4851 119.073 16.4825C119.425 16.4825 119.78 16.4799 120.132 16.4773H121.994C122.841 16.4773 123.266 16.8355 123.266 17.5532C123.266 18.2719 122.841 18.6319 121.994 18.6319H120.132L118.051 18.6666C117.664 19.7254 117.278 20.7839 116.891 21.8454H122.221C125.831 21.8454 127.634 20.5865 127.634 18.0641C127.634 16.3886 126.824 15.3053 125.204 14.814Z" fill="white"/>
<path fill-rule="evenodd" clip-rule="evenodd" d="M114.134 11.8144L114.143 13.8014H117.581L117.488 14.0567L116.603 16.497C116.318 16.4997 116.031 16.4997 115.745 16.5023C115.21 16.5045 114.674 16.5097 114.139 16.5119C114.144 16.929 114.148 17.3437 114.154 17.7611V21.8454H109.768V8.61206H119.474C119.085 9.68027 118.697 10.7469 118.307 11.8144H114.134Z" fill="white"/>
<path fill-rule="evenodd" clip-rule="evenodd" d="M12.2969 16.6455V12.825H0.0175781V27.8487H5.11079V23.0411H11.4123V19.2209H5.11079V16.6455H12.2969Z" fill="#302E3A"/>
<path fill-rule="evenodd" clip-rule="evenodd" d="M18.9443 21.5819L20.4119 17.8043L21.8791 21.5819H18.9443ZM22.9586 12.825H17.9516L11.3477 27.8487H16.5271L17.5415 25.2304H23.2822L24.2963 27.8487H29.5624L22.9586 12.825Z" fill="#302E3A"/>
<path fill-rule="evenodd" clip-rule="evenodd" d="M38.0677 24.3077H35.003V21.9464H38.0677C39.1898 21.9464 39.7511 22.34 39.7511 23.1268C39.7511 23.9141 39.1898 24.3077 38.0677 24.3077ZM35.003 16.3664H37.3771C38.4846 16.3664 39.0386 16.7387 39.0386 17.4824C39.0386 18.2266 38.4846 18.5986 37.3771 18.5986H35.003V16.3664ZM44.1537 21.4315C43.6645 20.8021 42.9738 20.3227 42.0816 19.9936C42.7723 19.65 43.2934 19.1993 43.6463 18.6415C43.9987 18.0834 44.175 17.4539 44.175 16.7529C44.175 15.5654 43.6607 14.614 42.632 13.8979C41.6033 13.1832 40.0817 12.825 38.0677 12.825H29.9961V27.8487H38.4991C40.5712 27.8487 42.1536 27.4875 43.2468 26.7649C44.3401 26.0426 44.8871 25.0233 44.8871 23.7066C44.8871 22.8194 44.6425 22.0613 44.1537 21.4315Z" fill="#302E3A"/>
<path fill-rule="evenodd" clip-rule="evenodd" d="M54.7917 19.7895C54.4466 20.0973 53.9285 20.251 53.2378 20.251H51.3823V16.7312H53.2378C53.9285 16.7312 54.4466 16.8853 54.7917 17.1928C55.1372 17.5006 55.3098 17.9334 55.3098 18.4912C55.3098 19.0493 55.1372 19.482 54.7917 19.7895ZM57.5976 23.213C58.5178 22.7407 59.2231 22.1043 59.7124 21.3028C60.2016 20.5013 60.4462 19.5642 60.4462 18.4912C60.4462 17.3465 60.1655 16.3447 59.6046 15.4866C59.0435 14.6281 58.2447 13.97 57.2089 13.5118C56.1731 13.054 54.9572 12.825 53.5616 12.825H46.2891V27.8487H51.3823V24.0711H52.7633L55.3316 27.8487H60.7699L57.5976 23.213Z" fill="#302E3A"/>
<path fill-rule="evenodd" clip-rule="evenodd" d="M61.9785 27.8487H67.0717V12.825H61.9785V27.8487Z" fill="#302E3A"/>
<path fill-rule="evenodd" clip-rule="evenodd" d="M78.6168 19.4354L84.6593 12.825H79.1133L74.1495 18.2766V12.825H69.1426V27.8487H74.1495V24.1357L75.2929 22.8694L79.0697 27.8487H84.9616L78.6168 19.4354Z" fill="#302E3A"/>
<path fill-rule="evenodd" clip-rule="evenodd" d="M93.7451 21.5819L95.2127 17.8043L96.6799 21.5819H93.7451ZM97.7589 12.825H92.7524L86.1484 27.8487H91.3279L92.3423 25.2304H98.0827L99.0645 27.8487H103.903L97.7589 12.825Z" fill="#302E3A"/>
<path fill-rule="evenodd" clip-rule="evenodd" d="M8.57474 45.8726H5.31909V43.3644H8.57474C9.76706 43.3644 10.3635 43.7822 10.3635 44.6182C10.3635 45.4548 9.76706 45.8726 8.57474 45.8726ZM5.31909 37.4358H7.84126C9.0182 37.4358 9.60678 37.8314 9.60678 38.6219C9.60678 39.4121 9.0182 39.8072 7.84126 39.8072H5.31909V37.4358ZM15.0407 42.8169C14.5207 42.1484 13.7873 41.6391 12.8396 41.2895C13.573 40.925 14.1271 40.4456 14.5016 39.8531C14.876 39.2598 15.0632 38.5913 15.0632 37.8463C15.0632 36.5848 14.517 35.5737 13.4241 34.8137C12.3313 34.0541 10.7147 33.674 8.57474 33.674H0V49.6349H9.03358C11.2346 49.6349 12.9157 49.251 14.0777 48.4832C15.2392 47.7157 15.8202 46.6326 15.8202 45.2343C15.8202 44.2918 15.5603 43.4859 15.0407 42.8169Z" fill="#302E3A"/>
<path fill-rule="evenodd" clip-rule="evenodd" d="M22.6295 45.5764V43.4784H29.4166V39.6019H22.6295V37.7321H30.3564V33.674H17.3105V49.6349H30.6543V45.5764H22.6295Z" fill="#302E3A"/>
<path fill-rule="evenodd" clip-rule="evenodd" d="M31.1113 33.674V37.8463H35.8117V49.6349H41.2223V37.8463H45.9226V33.674H31.1113Z" fill="#302E3A"/>
<path fill-rule="evenodd" clip-rule="evenodd" d="M58.2139 43.7634C57.8927 44.364 57.4608 44.8278 56.9183 45.1543C56.3756 45.4815 55.7682 45.6446 55.0958 45.6446C54.4232 45.6446 53.8154 45.4815 53.2729 45.1543C52.7301 44.8278 52.2983 44.364 51.9775 43.7634C51.6564 43.1632 51.4961 42.4602 51.4961 41.6547C51.4961 40.8488 51.6564 40.1458 51.9775 39.5452C52.2983 38.9448 52.7301 38.4815 53.2729 38.1543C53.8154 37.8278 54.4232 37.6644 55.0958 37.6644C55.7682 37.6644 56.3756 37.8278 56.9183 38.1543C57.4608 38.4815 57.8927 38.9448 58.2139 39.5452C58.5346 40.1458 58.6952 40.8488 58.6952 41.6547C58.6952 42.4602 58.5346 43.1632 58.2139 43.7634ZM62.9825 37.3562C62.2029 36.0874 61.1255 35.0953 59.7497 34.3808C58.3744 33.6663 56.8228 33.309 55.0958 33.309C53.3683 33.309 51.8166 33.6663 50.4412 34.3808C49.0655 35.0953 47.9876 36.0874 47.2084 37.3562C46.4289 38.6259 46.0391 40.0586 46.0391 41.6547C46.0391 43.2508 46.4289 44.6835 47.2084 45.9527C47.9876 47.222 49.0655 48.2137 50.4412 48.9282C51.8166 49.6426 53.3683 50 55.0958 50C56.8228 50 58.3744 49.6426 59.7497 48.9282C61.1255 48.2137 62.2029 47.222 62.9825 45.9527C63.7621 44.6835 64.1519 43.2508 64.1519 41.6547C64.1519 40.0586 63.7621 38.6259 62.9825 37.3562Z" fill="#302E3A"/>
<path fill-rule="evenodd" clip-rule="evenodd" d="M76.2575 33.674V40.9243L70.1589 33.674H65.7109V49.6349H70.9842V42.3838L77.0829 49.6349H81.5308V33.674H76.2575Z" fill="#302E3A"/>
<path fill-rule="evenodd" clip-rule="evenodd" d="M95.2641 43.7634C94.9431 44.364 94.5112 44.8278 93.9687 45.1543C93.4258 45.4815 92.8185 45.6446 92.1462 45.6446C91.4735 45.6446 90.8661 45.4815 90.3233 45.1543C89.7804 44.8278 89.3486 44.364 89.0278 43.7634C88.7067 43.1632 88.5465 42.4602 88.5465 41.6547C88.5465 40.8488 88.7067 40.1458 89.0278 39.5452C89.3486 38.9448 89.7804 38.4815 90.3233 38.1543C90.8661 37.8278 91.4735 37.6644 92.1462 37.6644C92.8185 37.6644 93.4258 37.8278 93.9687 38.1543C94.5112 38.4815 94.9431 38.9448 95.2641 39.5452C95.585 40.1458 95.7456 40.8488 95.7456 41.6547C95.7456 42.4602 95.585 43.1632 95.2641 43.7634ZM100.033 37.3562C99.2537 36.0874 98.1758 35.0953 96.8005 34.3808C95.4247 33.6663 93.873 33.309 92.1462 33.309C90.4189 33.309 88.8669 33.6663 87.4915 34.3808C86.1162 35.0953 85.0384 36.0874 84.2588 37.3562C83.4791 38.6259 83.0898 40.0586 83.0898 41.6547C83.0898 43.2508 83.4791 44.6835 84.2588 45.9527C85.0384 47.222 86.1162 48.2137 87.4915 48.9282C88.8669 49.6426 90.4189 50 92.1462 50C93.873 50 95.4247 49.6426 96.8005 48.9282C98.1758 48.2137 99.2537 47.222 100.033 45.9527C100.812 44.6835 101.202 43.2508 101.202 41.6547C101.202 40.0586 100.812 38.6259 100.033 37.3562Z" fill="#302E3A"/>
<path fill-rule="evenodd" clip-rule="evenodd" d="M119.636 32.8607L119.292 33.6737L112.551 49.6346H107.232L101.248 33.6737L99.584 29.2343H104.469L110.098 42.9992L114.516 32.3843C115.848 32.713 117.241 32.8872 118.676 32.8872C118.998 32.8872 119.318 32.8783 119.636 32.8607Z" fill="#302E3A"/>
</svg>
